<?xml version="1.0" encoding="utf-8" standalone="no"?>
<!DOCTYPE svg PUBLIC "-//W3C//DTD SVG 1.1//EN"
  "http://www.w3.org/Graphics/SVG/1.1/DTD/svg11.dtd">
<svg xmlns:xlink="http://www.w3.org/1999/xlink" width="791.000848pt" height="791.000848pt" viewBox="0 0 791.000848 791.000848" xmlns="http://www.w3.org/2000/svg" version="1.1">
 <metadata>
  <rdf:RDF xmlns:dc="http://purl.org/dc/elements/1.1/" xmlns:cc="http://creativecommons.org/ns#" xmlns:rdf="http://www.w3.org/1999/02/22-rdf-syntax-ns#">
   <cc:Work>
    <dc:type rdf:resource="http://purl.org/dc/dcmitype/StillImage"/>
    <dc:date>2025-06-21T01:17:39.675866</dc:date>
    <dc:format>image/svg+xml</dc:format>
    <dc:creator>
     <cc:Agent>
      <dc:title>Matplotlib v3.10.1, https://matplotlib.org/</dc:title>
     </cc:Agent>
    </dc:creator>
   </cc:Work>
  </rdf:RDF>
 </metadata>
 <defs>
  <style type="text/css">*{stroke-linejoin: round; stroke-linecap: butt}</style>
 </defs>
 <g id="figure_1">
  <g id="patch_1">
   <path d="M 0 791.000848 
L 791.000848 791.000848 
L 791.000848 0 
L 0 0 
z
" style="fill: #ffffff"/>
  </g>
  <g id="axes_1">
   <g id="patch_2">
    <path d="M 98.875106 703.990755 
L 711.900763 703.990755 
L 711.900763 94.920102 
L 98.875106 94.920102 
z
" style="fill: #ffffff"/>
   </g>
   <g id="LineCollection_1">
    <path d="M 658.704322 651.137516 
L 152.071547 627.671625 
" clip-path="url(#p82d9229d4a)" style="fill: none; stroke: #000000; stroke-opacity: 0.02"/>
    <path d="M 658.704322 651.137516 
L 423.528641 147.77334 
" clip-path="url(#p82d9229d4a)" style="fill: none; stroke: #000000; stroke-opacity: 0.02"/>
    <path d="M 423.528641 147.77334 
L 152.071547 627.671625 
" clip-path="url(#p82d9229d4a)" style="fill: none; stroke: #000000; stroke-opacity: 0.02"/>
   </g>
   <g id="matplotlib.axis_1">
    <g id="xtick_1"/>
    <g id="xtick_2"/>
    <g id="xtick_3"/>
    <g id="xtick_4"/>
    <g id="xtick_5"/>
    <g id="xtick_6"/>
    <g id="xtick_7"/>
    <g id="xtick_8"/>
    <g id="xtick_9"/>
   </g>
   <g id="matplotlib.axis_2">
    <g id="ytick_1"/>
    <g id="ytick_2"/>
    <g id="ytick_3"/>
    <g id="ytick_4"/>
    <g id="ytick_5"/>
    <g id="ytick_6"/>
    <g id="ytick_7"/>
   </g>
   <g id="PathCollection_1">
    <path d="M 658.704322 654.299794 
C 659.542968 654.299794 660.347378 653.966596 660.94039 653.373584 
C 661.533402 652.780572 661.866599 651.976162 661.866599 651.137516 
C 661.866599 650.29887 661.533402 649.49446 660.94039 648.901448 
C 660.347378 648.308436 659.542968 647.975238 658.704322 647.975238 
C 657.865676 647.975238 657.061266 648.308436 656.468254 648.901448 
C 655.875242 649.49446 655.542044 650.29887 655.542044 651.137516 
C 655.542044 651.976162 655.875242 652.780572 656.468254 653.373584 
C 657.061266 653.966596 657.865676 654.299794 658.704322 654.299794 
z
" clip-path="url(#p82d9229d4a)" style="fill: #b6e6f2; fill-opacity: 0.6; stroke: #b6e6f2; stroke-opacity: 0.6"/>
    <path d="M 423.528641 150.009408 
C 424.121654 150.009408 424.690457 149.773802 425.10978 149.354479 
C 425.529103 148.935156 425.764709 148.366352 425.764709 147.77334 
C 425.764709 147.180328 425.529103 146.611524 425.10978 146.192201 
C 424.690457 145.772878 424.121654 145.537272 423.528641 145.537272 
C 422.935629 145.537272 422.366825 145.772878 421.947503 146.192201 
C 421.52818 146.611524 421.292573 147.180328 421.292573 147.77334 
C 421.292573 148.366352 421.52818 148.935156 421.947503 149.354479 
C 422.366825 149.773802 422.935629 150.009408 423.528641 150.009408 
z
" clip-path="url(#p82d9229d4a)" style="fill: #b6e6f2; fill-opacity: 0.6; stroke: #b6e6f2; stroke-opacity: 0.6"/>
    <path d="M 152.071547 629.907693 
C 152.664559 629.907693 153.233363 629.672087 153.652686 629.252764 
C 154.072009 628.833441 154.307615 628.264638 154.307615 627.671625 
C 154.307615 627.078613 154.072009 626.50981 153.652686 626.090487 
C 153.233363 625.671164 152.664559 625.435557 152.071547 625.435557 
C 151.478535 625.435557 150.909731 625.671164 150.490408 626.090487 
C 150.071086 626.50981 149.835479 627.078613 149.835479 627.671625 
C 149.835479 628.264638 150.071086 628.833441 150.490408 629.252764 
C 150.909731 629.672087 151.478535 629.907693 152.071547 629.907693 
z
" clip-path="url(#p82d9229d4a)" style="fill: #ffcc00; fill-opacity: 0.6; stroke: #ffcc00; stroke-opacity: 0.6"/>
   </g>
   <g id="patch_3">
    <path d="M 98.875106 703.990755 
L 98.875106 94.920102 
" style="fill: none; stroke: #000000; stroke-width: 0.8; stroke-linejoin: miter; stroke-linecap: square"/>
   </g>
   <g id="patch_4">
    <path d="M 711.900763 703.990755 
L 711.900763 94.920102 
" style="fill: none; stroke: #000000; stroke-width: 0.8; stroke-linejoin: miter; stroke-linecap: square"/>
   </g>
   <g id="patch_5">
    <path d="M 98.875106 703.990755 
L 711.900763 703.990755 
" style="fill: none; stroke: #000000; stroke-width: 0.8; stroke-linejoin: miter; stroke-linecap: square"/>
   </g>
   <g id="patch_6">
    <path d="M 98.875106 94.920102 
L 711.900763 94.920102 
" style="fill: none; stroke: #000000; stroke-width: 0.8; stroke-linejoin: miter; stroke-linecap: square"/>
   </g>
   <g id="text_1">
    <g clip-path="url(#p82d9229d4a)">
     <!-- McGill University -->
     <g style="opacity: 0.7" transform="translate(616.788697 653.896891) scale(0.1 -0.1)">
      <defs>
       <path id="DejaVuSans-4d" d="M 628 4666 
L 1569 4666 
L 2759 1491 
L 3956 4666 
L 4897 4666 
L 4897 0 
L 4281 0 
L 4281 4097 
L 3078 897 
L 2444 897 
L 1241 4097 
L 1241 0 
L 628 0 
L 628 4666 
z
" transform="scale(0.015625)"/>
       <path id="DejaVuSans-63" d="M 3122 3366 
L 3122 2828 
Q 2878 2963 2633 3030 
Q 2388 3097 2138 3097 
Q 1578 3097 1268 2742 
Q 959 2388 959 1747 
Q 959 1106 1268 751 
Q 1578 397 2138 397 
Q 2388 397 2633 464 
Q 2878 531 3122 666 
L 3122 134 
Q 2881 22 2623 -34 
Q 2366 -91 2075 -91 
Q 1284 -91 818 406 
Q 353 903 353 1747 
Q 353 2603 823 3093 
Q 1294 3584 2113 3584 
Q 2378 3584 2631 3529 
Q 2884 3475 3122 3366 
z
" transform="scale(0.015625)"/>
       <path id="DejaVuSans-47" d="M 3809 666 
L 3809 1919 
L 2778 1919 
L 2778 2438 
L 4434 2438 
L 4434 434 
Q 4069 175 3628 42 
Q 3188 -91 2688 -91 
Q 1594 -91 976 548 
Q 359 1188 359 2328 
Q 359 3472 976 4111 
Q 1594 4750 2688 4750 
Q 3144 4750 3555 4637 
Q 3966 4525 4313 4306 
L 4313 3634 
Q 3963 3931 3569 4081 
Q 3175 4231 2741 4231 
Q 1884 4231 1454 3753 
Q 1025 3275 1025 2328 
Q 1025 1384 1454 906 
Q 1884 428 2741 428 
Q 3075 428 3337 486 
Q 3600 544 3809 666 
z
" transform="scale(0.015625)"/>
       <path id="DejaVuSans-69" d="M 603 3500 
L 1178 3500 
L 1178 0 
L 603 0 
L 603 3500 
z
M 603 4863 
L 1178 4863 
L 1178 4134 
L 603 4134 
L 603 4863 
z
" transform="scale(0.015625)"/>
       <path id="DejaVuSans-6c" d="M 603 4863 
L 1178 4863 
L 1178 0 
L 603 0 
L 603 4863 
z
" transform="scale(0.015625)"/>
       <path id="DejaVuSans-20" transform="scale(0.015625)"/>
       <path id="DejaVuSans-55" d="M 556 4666 
L 1191 4666 
L 1191 1831 
Q 1191 1081 1462 751 
Q 1734 422 2344 422 
Q 2950 422 3222 751 
Q 3494 1081 3494 1831 
L 3494 4666 
L 4128 4666 
L 4128 1753 
Q 4128 841 3676 375 
Q 3225 -91 2344 -91 
Q 1459 -91 1007 375 
Q 556 841 556 1753 
L 556 4666 
z
" transform="scale(0.015625)"/>
       <path id="DejaVuSans-6e" d="M 3513 2113 
L 3513 0 
L 2938 0 
L 2938 2094 
Q 2938 2591 2744 2837 
Q 2550 3084 2163 3084 
Q 1697 3084 1428 2787 
Q 1159 2491 1159 1978 
L 1159 0 
L 581 0 
L 581 3500 
L 1159 3500 
L 1159 2956 
Q 1366 3272 1645 3428 
Q 1925 3584 2291 3584 
Q 2894 3584 3203 3211 
Q 3513 2838 3513 2113 
z
" transform="scale(0.015625)"/>
       <path id="DejaVuSans-76" d="M 191 3500 
L 800 3500 
L 1894 563 
L 2988 3500 
L 3597 3500 
L 2284 0 
L 1503 0 
L 191 3500 
z
" transform="scale(0.015625)"/>
       <path id="DejaVuSans-65" d="M 3597 1894 
L 3597 1613 
L 953 1613 
Q 991 1019 1311 708 
Q 1631 397 2203 397 
Q 2534 397 2845 478 
Q 3156 559 3463 722 
L 3463 178 
Q 3153 47 2828 -22 
Q 2503 -91 2169 -91 
Q 1331 -91 842 396 
Q 353 884 353 1716 
Q 353 2575 817 3079 
Q 1281 3584 2069 3584 
Q 2775 3584 3186 3129 
Q 3597 2675 3597 1894 
z
M 3022 2063 
Q 3016 2534 2758 2815 
Q 2500 3097 2075 3097 
Q 1594 3097 1305 2825 
Q 1016 2553 972 2059 
L 3022 2063 
z
" transform="scale(0.015625)"/>
       <path id="DejaVuSans-72" d="M 2631 2963 
Q 2534 3019 2420 3045 
Q 2306 3072 2169 3072 
Q 1681 3072 1420 2755 
Q 1159 2438 1159 1844 
L 1159 0 
L 581 0 
L 581 3500 
L 1159 3500 
L 1159 2956 
Q 1341 3275 1631 3429 
Q 1922 3584 2338 3584 
Q 2397 3584 2469 3576 
Q 2541 3569 2628 3553 
L 2631 2963 
z
" transform="scale(0.015625)"/>
       <path id="DejaVuSans-73" d="M 2834 3397 
L 2834 2853 
Q 2591 2978 2328 3040 
Q 2066 3103 1784 3103 
Q 1356 3103 1142 2972 
Q 928 2841 928 2578 
Q 928 2378 1081 2264 
Q 1234 2150 1697 2047 
L 1894 2003 
Q 2506 1872 2764 1633 
Q 3022 1394 3022 966 
Q 3022 478 2636 193 
Q 2250 -91 1575 -91 
Q 1294 -91 989 -36 
Q 684 19 347 128 
L 347 722 
Q 666 556 975 473 
Q 1284 391 1588 391 
Q 1994 391 2212 530 
Q 2431 669 2431 922 
Q 2431 1156 2273 1281 
Q 2116 1406 1581 1522 
L 1381 1569 
Q 847 1681 609 1914 
Q 372 2147 372 2553 
Q 372 3047 722 3315 
Q 1072 3584 1716 3584 
Q 2034 3584 2315 3537 
Q 2597 3491 2834 3397 
z
" transform="scale(0.015625)"/>
       <path id="DejaVuSans-74" d="M 1172 4494 
L 1172 3500 
L 2356 3500 
L 2356 3053 
L 1172 3053 
L 1172 1153 
Q 1172 725 1289 603 
Q 1406 481 1766 481 
L 2356 481 
L 2356 0 
L 1766 0 
Q 1100 0 847 248 
Q 594 497 594 1153 
L 594 3053 
L 172 3053 
L 172 3500 
L 594 3500 
L 594 4494 
L 1172 4494 
z
" transform="scale(0.015625)"/>
       <path id="DejaVuSans-79" d="M 2059 -325 
Q 1816 -950 1584 -1140 
Q 1353 -1331 966 -1331 
L 506 -1331 
L 506 -850 
L 844 -850 
Q 1081 -850 1212 -737 
Q 1344 -625 1503 -206 
L 1606 56 
L 191 3500 
L 800 3500 
L 1894 763 
L 2988 3500 
L 3597 3500 
L 2059 -325 
z
" transform="scale(0.015625)"/>
      </defs>
      <use xlink:href="#DejaVuSans-4d"/>
      <use xlink:href="#DejaVuSans-63" transform="translate(86.279297 0)"/>
      <use xlink:href="#DejaVuSans-47" transform="translate(141.259766 0)"/>
      <use xlink:href="#DejaVuSans-69" transform="translate(218.75 0)"/>
      <use xlink:href="#DejaVuSans-6c" transform="translate(246.533203 0)"/>
      <use xlink:href="#DejaVuSans-6c" transform="translate(274.316406 0)"/>
      <use xlink:href="#DejaVuSans-20" transform="translate(302.099609 0)"/>
      <use xlink:href="#DejaVuSans-55" transform="translate(333.886719 0)"/>
      <use xlink:href="#DejaVuSans-6e" transform="translate(407.080078 0)"/>
      <use xlink:href="#DejaVuSans-69" transform="translate(470.458984 0)"/>
      <use xlink:href="#DejaVuSans-76" transform="translate(498.242188 0)"/>
      <use xlink:href="#DejaVuSans-65" transform="translate(557.421875 0)"/>
      <use xlink:href="#DejaVuSans-72" transform="translate(618.945312 0)"/>
      <use xlink:href="#DejaVuSans-73" transform="translate(660.058594 0)"/>
      <use xlink:href="#DejaVuSans-69" transform="translate(712.158203 0)"/>
      <use xlink:href="#DejaVuSans-74" transform="translate(739.941406 0)"/>
      <use xlink:href="#DejaVuSans-79" transform="translate(779.150391 0)"/>
     </g>
    </g>
   </g>
   <g id="text_2">
    <g clip-path="url(#p82d9229d4a)">
     <!-- University of Berlin -->
     <g style="opacity: 0.7" transform="translate(375.799735 150.532715) scale(0.1 -0.1)">
      <defs>
       <path id="DejaVuSans-6f" d="M 1959 3097 
Q 1497 3097 1228 2736 
Q 959 2375 959 1747 
Q 959 1119 1226 758 
Q 1494 397 1959 397 
Q 2419 397 2687 759 
Q 2956 1122 2956 1747 
Q 2956 2369 2687 2733 
Q 2419 3097 1959 3097 
z
M 1959 3584 
Q 2709 3584 3137 3096 
Q 3566 2609 3566 1747 
Q 3566 888 3137 398 
Q 2709 -91 1959 -91 
Q 1206 -91 779 398 
Q 353 888 353 1747 
Q 353 2609 779 3096 
Q 1206 3584 1959 3584 
z
" transform="scale(0.015625)"/>
       <path id="DejaVuSans-66" d="M 2375 4863 
L 2375 4384 
L 1825 4384 
Q 1516 4384 1395 4259 
Q 1275 4134 1275 3809 
L 1275 3500 
L 2222 3500 
L 2222 3053 
L 1275 3053 
L 1275 0 
L 697 0 
L 697 3053 
L 147 3053 
L 147 3500 
L 697 3500 
L 697 3744 
Q 697 4328 969 4595 
Q 1241 4863 1831 4863 
L 2375 4863 
z
" transform="scale(0.015625)"/>
       <path id="DejaVuSans-42" d="M 1259 2228 
L 1259 519 
L 2272 519 
Q 2781 519 3026 730 
Q 3272 941 3272 1375 
Q 3272 1813 3026 2020 
Q 2781 2228 2272 2228 
L 1259 2228 
z
M 1259 4147 
L 1259 2741 
L 2194 2741 
Q 2656 2741 2882 2914 
Q 3109 3088 3109 3444 
Q 3109 3797 2882 3972 
Q 2656 4147 2194 4147 
L 1259 4147 
z
M 628 4666 
L 2241 4666 
Q 2963 4666 3353 4366 
Q 3744 4066 3744 3513 
Q 3744 3084 3544 2831 
Q 3344 2578 2956 2516 
Q 3422 2416 3680 2098 
Q 3938 1781 3938 1306 
Q 3938 681 3513 340 
Q 3088 0 2303 0 
L 628 0 
L 628 4666 
z
" transform="scale(0.015625)"/>
      </defs>
      <use xlink:href="#DejaVuSans-55"/>
      <use xlink:href="#DejaVuSans-6e" transform="translate(73.193359 0)"/>
      <use xlink:href="#DejaVuSans-69" transform="translate(136.572266 0)"/>
      <use xlink:href="#DejaVuSans-76" transform="translate(164.355469 0)"/>
      <use xlink:href="#DejaVuSans-65" transform="translate(223.535156 0)"/>
      <use xlink:href="#DejaVuSans-72" transform="translate(285.058594 0)"/>
      <use xlink:href="#DejaVuSans-73" transform="translate(326.171875 0)"/>
      <use xlink:href="#DejaVuSans-69" transform="translate(378.271484 0)"/>
      <use xlink:href="#DejaVuSans-74" transform="translate(406.054688 0)"/>
      <use xlink:href="#DejaVuSans-79" transform="translate(445.263672 0)"/>
      <use xlink:href="#DejaVuSans-20" transform="translate(504.443359 0)"/>
      <use xlink:href="#DejaVuSans-6f" transform="translate(536.230469 0)"/>
      <use xlink:href="#DejaVuSans-66" transform="translate(597.412109 0)"/>
      <use xlink:href="#DejaVuSans-20" transform="translate(632.617188 0)"/>
      <use xlink:href="#DejaVuSans-42" transform="translate(664.404297 0)"/>
      <use xlink:href="#DejaVuSans-65" transform="translate(733.007812 0)"/>
      <use xlink:href="#DejaVuSans-72" transform="translate(794.53125 0)"/>
      <use xlink:href="#DejaVuSans-6c" transform="translate(835.644531 0)"/>
      <use xlink:href="#DejaVuSans-69" transform="translate(863.427734 0)"/>
      <use xlink:href="#DejaVuSans-6e" transform="translate(891.210938 0)"/>
     </g>
    </g>
   </g>
   <g id="text_3">
    <g clip-path="url(#p82d9229d4a)">
     <!-- University of Chicago -->
     <g style="opacity: 0.7" transform="translate(98.755922 630.431) scale(0.1 -0.1)">
      <defs>
       <path id="DejaVuSans-43" d="M 4122 4306 
L 4122 3641 
Q 3803 3938 3442 4084 
Q 3081 4231 2675 4231 
Q 1875 4231 1450 3742 
Q 1025 3253 1025 2328 
Q 1025 1406 1450 917 
Q 1875 428 2675 428 
Q 3081 428 3442 575 
Q 3803 722 4122 1019 
L 4122 359 
Q 3791 134 3420 21 
Q 3050 -91 2638 -91 
Q 1578 -91 968 557 
Q 359 1206 359 2328 
Q 359 3453 968 4101 
Q 1578 4750 2638 4750 
Q 3056 4750 3426 4639 
Q 3797 4528 4122 4306 
z
" transform="scale(0.015625)"/>
       <path id="DejaVuSans-68" d="M 3513 2113 
L 3513 0 
L 2938 0 
L 2938 2094 
Q 2938 2591 2744 2837 
Q 2550 3084 2163 3084 
Q 1697 3084 1428 2787 
Q 1159 2491 1159 1978 
L 1159 0 
L 581 0 
L 581 4863 
L 1159 4863 
L 1159 2956 
Q 1366 3272 1645 3428 
Q 1925 3584 2291 3584 
Q 2894 3584 3203 3211 
Q 3513 2838 3513 2113 
z
" transform="scale(0.015625)"/>
       <path id="DejaVuSans-61" d="M 2194 1759 
Q 1497 1759 1228 1600 
Q 959 1441 959 1056 
Q 959 750 1161 570 
Q 1363 391 1709 391 
Q 2188 391 2477 730 
Q 2766 1069 2766 1631 
L 2766 1759 
L 2194 1759 
z
M 3341 1997 
L 3341 0 
L 2766 0 
L 2766 531 
Q 2569 213 2275 61 
Q 1981 -91 1556 -91 
Q 1019 -91 701 211 
Q 384 513 384 1019 
Q 384 1609 779 1909 
Q 1175 2209 1959 2209 
L 2766 2209 
L 2766 2266 
Q 2766 2663 2505 2880 
Q 2244 3097 1772 3097 
Q 1472 3097 1187 3025 
Q 903 2953 641 2809 
L 641 3341 
Q 956 3463 1253 3523 
Q 1550 3584 1831 3584 
Q 2591 3584 2966 3190 
Q 3341 2797 3341 1997 
z
" transform="scale(0.015625)"/>
       <path id="DejaVuSans-67" d="M 2906 1791 
Q 2906 2416 2648 2759 
Q 2391 3103 1925 3103 
Q 1463 3103 1205 2759 
Q 947 2416 947 1791 
Q 947 1169 1205 825 
Q 1463 481 1925 481 
Q 2391 481 2648 825 
Q 2906 1169 2906 1791 
z
M 3481 434 
Q 3481 -459 3084 -895 
Q 2688 -1331 1869 -1331 
Q 1566 -1331 1297 -1286 
Q 1028 -1241 775 -1147 
L 775 -588 
Q 1028 -725 1275 -790 
Q 1522 -856 1778 -856 
Q 2344 -856 2625 -561 
Q 2906 -266 2906 331 
L 2906 616 
Q 2728 306 2450 153 
Q 2172 0 1784 0 
Q 1141 0 747 490 
Q 353 981 353 1791 
Q 353 2603 747 3093 
Q 1141 3584 1784 3584 
Q 2172 3584 2450 3431 
Q 2728 3278 2906 2969 
L 2906 3500 
L 3481 3500 
L 3481 434 
z
" transform="scale(0.015625)"/>
      </defs>
      <use xlink:href="#DejaVuSans-55"/>
      <use xlink:href="#DejaVuSans-6e" transform="translate(73.193359 0)"/>
      <use xlink:href="#DejaVuSans-69" transform="translate(136.572266 0)"/>
      <use xlink:href="#DejaVuSans-76" transform="translate(164.355469 0)"/>
      <use xlink:href="#DejaVuSans-65" transform="translate(223.535156 0)"/>
      <use xlink:href="#DejaVuSans-72" transform="translate(285.058594 0)"/>
      <use xlink:href="#DejaVuSans-73" transform="translate(326.171875 0)"/>
      <use xlink:href="#DejaVuSans-69" transform="translate(378.271484 0)"/>
      <use xlink:href="#DejaVuSans-74" transform="translate(406.054688 0)"/>
      <use xlink:href="#DejaVuSans-79" transform="translate(445.263672 0)"/>
      <use xlink:href="#DejaVuSans-20" transform="translate(504.443359 0)"/>
      <use xlink:href="#DejaVuSans-6f" transform="translate(536.230469 0)"/>
      <use xlink:href="#DejaVuSans-66" transform="translate(597.412109 0)"/>
      <use xlink:href="#DejaVuSans-20" transform="translate(632.617188 0)"/>
      <use xlink:href="#DejaVuSans-43" transform="translate(664.404297 0)"/>
      <use xlink:href="#DejaVuSans-68" transform="translate(734.228516 0)"/>
      <use xlink:href="#DejaVuSans-69" transform="translate(797.607422 0)"/>
      <use xlink:href="#DejaVuSans-63" transform="translate(825.390625 0)"/>
      <use xlink:href="#DejaVuSans-61" transform="translate(880.371094 0)"/>
      <use xlink:href="#DejaVuSans-67" transform="translate(941.650391 0)"/>
      <use xlink:href="#DejaVuSans-6f" transform="translate(1005.126953 0)"/>
     </g>
    </g>
   </g>
   <g id="legend_1">
    <g id="patch_7">
     <path d="M 559.502638 697.990755 
L 703.500763 697.990755 
Q 705.900763 697.990755 705.900763 695.590755 
L 705.900763 643.949505 
Q 705.900763 641.549505 703.500763 641.549505 
L 559.502638 641.549505 
Q 557.102638 641.549505 557.102638 643.949505 
L 557.102638 695.590755 
Q 557.102638 697.990755 559.502638 697.990755 
z
" style="fill: #ffffff; opacity: 0.8; stroke: #cccccc; stroke-linejoin: miter"/>
    </g>
    <g id="line2d_1">
     <path d="M 561.902638 651.26763 
L 573.902638 651.26763 
L 585.902638 651.26763 
" style="fill: none; stroke: #ffffff; stroke-opacity: 0.5; stroke-width: 1.5; stroke-linecap: square"/>
     <defs>
      <path id="m5eb37e84be" d="M 0 6 
C 1.591219 6 3.117479 5.367802 4.242641 4.242641 
C 5.367802 3.117479 6 1.591219 6 0 
C 6 -1.591219 5.367802 -3.117479 4.242641 -4.242641 
C 3.117479 -5.367802 1.591219 -6 0 -6 
C -1.591219 -6 -3.117479 -5.367802 -4.242641 -4.242641 
C -5.367802 -3.117479 -6 -1.591219 -6 0 
C -6 1.591219 -5.367802 3.117479 -4.242641 4.242641 
C -3.117479 5.367802 -1.591219 6 0 6 
z
" style="stroke: #ffffff; stroke-opacity: 0.5"/>
     </defs>
     <g>
      <use xlink:href="#m5eb37e84be" x="573.902638" y="651.26763" style="fill: #ffcc00; fill-opacity: 0.5; stroke: #ffffff; stroke-opacity: 0.5"/>
     </g>
    </g>
    <g id="text_4">
     <!-- private university -->
     <g transform="translate(595.502638 655.46763) scale(0.12 -0.12)">
      <defs>
       <path id="DejaVuSans-70" d="M 1159 525 
L 1159 -1331 
L 581 -1331 
L 581 3500 
L 1159 3500 
L 1159 2969 
Q 1341 3281 1617 3432 
Q 1894 3584 2278 3584 
Q 2916 3584 3314 3078 
Q 3713 2572 3713 1747 
Q 3713 922 3314 415 
Q 2916 -91 2278 -91 
Q 1894 -91 1617 61 
Q 1341 213 1159 525 
z
M 3116 1747 
Q 3116 2381 2855 2742 
Q 2594 3103 2138 3103 
Q 1681 3103 1420 2742 
Q 1159 2381 1159 1747 
Q 1159 1113 1420 752 
Q 1681 391 2138 391 
Q 2594 391 2855 752 
Q 3116 1113 3116 1747 
z
" transform="scale(0.015625)"/>
       <path id="DejaVuSans-75" d="M 544 1381 
L 544 3500 
L 1119 3500 
L 1119 1403 
Q 1119 906 1312 657 
Q 1506 409 1894 409 
Q 2359 409 2629 706 
Q 2900 1003 2900 1516 
L 2900 3500 
L 3475 3500 
L 3475 0 
L 2900 0 
L 2900 538 
Q 2691 219 2414 64 
Q 2138 -91 1772 -91 
Q 1169 -91 856 284 
Q 544 659 544 1381 
z
M 1991 3584 
L 1991 3584 
z
" transform="scale(0.015625)"/>
      </defs>
      <use xlink:href="#DejaVuSans-70"/>
      <use xlink:href="#DejaVuSans-72" transform="translate(63.476562 0)"/>
      <use xlink:href="#DejaVuSans-69" transform="translate(104.589844 0)"/>
      <use xlink:href="#DejaVuSans-76" transform="translate(132.373047 0)"/>
      <use xlink:href="#DejaVuSans-61" transform="translate(191.552734 0)"/>
      <use xlink:href="#DejaVuSans-74" transform="translate(252.832031 0)"/>
      <use xlink:href="#DejaVuSans-65" transform="translate(292.041016 0)"/>
      <use xlink:href="#DejaVuSans-20" transform="translate(353.564453 0)"/>
      <use xlink:href="#DejaVuSans-75" transform="translate(385.351562 0)"/>
      <use xlink:href="#DejaVuSans-6e" transform="translate(448.730469 0)"/>
      <use xlink:href="#DejaVuSans-69" transform="translate(512.109375 0)"/>
      <use xlink:href="#DejaVuSans-76" transform="translate(539.892578 0)"/>
      <use xlink:href="#DejaVuSans-65" transform="translate(599.072266 0)"/>
      <use xlink:href="#DejaVuSans-72" transform="translate(660.595703 0)"/>
      <use xlink:href="#DejaVuSans-73" transform="translate(701.708984 0)"/>
      <use xlink:href="#DejaVuSans-69" transform="translate(753.808594 0)"/>
      <use xlink:href="#DejaVuSans-74" transform="translate(781.591797 0)"/>
      <use xlink:href="#DejaVuSans-79" transform="translate(820.800781 0)"/>
     </g>
    </g>
    <g id="line2d_2">
     <path d="M 561.902638 668.88138 
L 573.902638 668.88138 
L 585.902638 668.88138 
" style="fill: none; stroke: #ffffff; stroke-opacity: 0.5; stroke-width: 1.5; stroke-linecap: square"/>
     <defs>
      <path id="m09797455e3" d="M 0 6 
C 1.591219 6 3.117479 5.367802 4.242641 4.242641 
C 5.367802 3.117479 6 1.591219 6 0 
C 6 -1.591219 5.367802 -3.117479 4.242641 -4.242641 
C 3.117479 -5.367802 1.591219 -6 0 -6 
C -1.591219 -6 -3.117479 -5.367802 -4.242641 -4.242641 
C -5.367802 -3.117479 -6 -1.591219 -6 0 
C -6 1.591219 -5.367802 3.117479 -4.242641 4.242641 
C -3.117479 5.367802 -1.591219 6 0 6 
z
" style="stroke: #ffffff; stroke-opacity: 0.5"/>
     </defs>
     <g>
      <use xlink:href="#m09797455e3" x="573.902638" y="668.88138" style="fill: #8c8300; fill-opacity: 0.5; stroke: #ffffff; stroke-opacity: 0.5"/>
     </g>
    </g>
    <g id="text_5">
     <!-- public university -->
     <g transform="translate(595.502638 673.08138) scale(0.12 -0.12)">
      <defs>
       <path id="DejaVuSans-62" d="M 3116 1747 
Q 3116 2381 2855 2742 
Q 2594 3103 2138 3103 
Q 1681 3103 1420 2742 
Q 1159 2381 1159 1747 
Q 1159 1113 1420 752 
Q 1681 391 2138 391 
Q 2594 391 2855 752 
Q 3116 1113 3116 1747 
z
M 1159 2969 
Q 1341 3281 1617 3432 
Q 1894 3584 2278 3584 
Q 2916 3584 3314 3078 
Q 3713 2572 3713 1747 
Q 3713 922 3314 415 
Q 2916 -91 2278 -91 
Q 1894 -91 1617 61 
Q 1341 213 1159 525 
L 1159 0 
L 581 0 
L 581 4863 
L 1159 4863 
L 1159 2969 
z
" transform="scale(0.015625)"/>
      </defs>
      <use xlink:href="#DejaVuSans-70"/>
      <use xlink:href="#DejaVuSans-75" transform="translate(63.476562 0)"/>
      <use xlink:href="#DejaVuSans-62" transform="translate(126.855469 0)"/>
      <use xlink:href="#DejaVuSans-6c" transform="translate(190.332031 0)"/>
      <use xlink:href="#DejaVuSans-69" transform="translate(218.115234 0)"/>
      <use xlink:href="#DejaVuSans-63" transform="translate(245.898438 0)"/>
      <use xlink:href="#DejaVuSans-20" transform="translate(300.878906 0)"/>
      <use xlink:href="#DejaVuSans-75" transform="translate(332.666016 0)"/>
      <use xlink:href="#DejaVuSans-6e" transform="translate(396.044922 0)"/>
      <use xlink:href="#DejaVuSans-69" transform="translate(459.423828 0)"/>
      <use xlink:href="#DejaVuSans-76" transform="translate(487.207031 0)"/>
      <use xlink:href="#DejaVuSans-65" transform="translate(546.386719 0)"/>
      <use xlink:href="#DejaVuSans-72" transform="translate(607.910156 0)"/>
      <use xlink:href="#DejaVuSans-73" transform="translate(649.023438 0)"/>
      <use xlink:href="#DejaVuSans-69" transform="translate(701.123047 0)"/>
      <use xlink:href="#DejaVuSans-74" transform="translate(728.90625 0)"/>
      <use xlink:href="#DejaVuSans-79" transform="translate(768.115234 0)"/>
     </g>
    </g>
    <g id="line2d_3">
     <path d="M 561.902638 686.49513 
L 573.902638 686.49513 
L 585.902638 686.49513 
" style="fill: none; stroke: #ffffff; stroke-opacity: 0.5; stroke-width: 1.5; stroke-linecap: square"/>
     <defs>
      <path id="mcc1d604cd0" d="M 0 6 
C 1.591219 6 3.117479 5.367802 4.242641 4.242641 
C 5.367802 3.117479 6 1.591219 6 0 
C 6 -1.591219 5.367802 -3.117479 4.242641 -4.242641 
C 3.117479 -5.367802 1.591219 -6 0 -6 
C -1.591219 -6 -3.117479 -5.367802 -4.242641 -4.242641 
C -5.367802 -3.117479 -6 -1.591219 -6 0 
C -6 1.591219 -5.367802 3.117479 -4.242641 4.242641 
C -3.117479 5.367802 -1.591219 6 0 6 
z
" style="stroke: #ffffff; stroke-opacity: 0.5"/>
     </defs>
     <g>
      <use xlink:href="#mcc1d604cd0" x="573.902638" y="686.49513" style="fill: #b6e6f2; fill-opacity: 0.5; stroke: #ffffff; stroke-opacity: 0.5"/>
     </g>
    </g>
    <g id="text_6">
     <!-- university -->
     <g transform="translate(595.502638 690.69513) scale(0.12 -0.12)">
      <use xlink:href="#DejaVuSans-75"/>
      <use xlink:href="#DejaVuSans-6e" transform="translate(63.378906 0)"/>
      <use xlink:href="#DejaVuSans-69" transform="translate(126.757812 0)"/>
      <use xlink:href="#DejaVuSans-76" transform="translate(154.541016 0)"/>
      <use xlink:href="#DejaVuSans-65" transform="translate(213.720703 0)"/>
      <use xlink:href="#DejaVuSans-72" transform="translate(275.244141 0)"/>
      <use xlink:href="#DejaVuSans-73" transform="translate(316.357422 0)"/>
      <use xlink:href="#DejaVuSans-69" transform="translate(368.457031 0)"/>
      <use xlink:href="#DejaVuSans-74" transform="translate(396.240234 0)"/>
      <use xlink:href="#DejaVuSans-79" transform="translate(435.449219 0)"/>
     </g>
    </g>
   </g>
  </g>
 </g>
 <defs>
  <clipPath id="p82d9229d4a">
   <rect x="98.875106" y="94.920102" width="613.025657" height="609.070653"/>
  </clipPath>
 </defs>
</svg>
